<?xml version="1.0" standalone="no"?>
<!DOCTYPE svg PUBLIC "-//W3C//DTD SVG 20010904//EN"
 "http://www.w3.org/TR/2001/REC-SVG-20010904/DTD/svg10.dtd">
<svg version="1.0" xmlns="http://www.w3.org/2000/svg"
 width="2295.000000pt" height="944.000000pt" viewBox="0 0 2295.000000 944.000000"
 preserveAspectRatio="xMidYMid meet">

<g transform="translate(0.000000,944.000000) scale(0.100000,-0.100000)"
fill="#000000" stroke="none">
<path d="M8013 7348 l-62 -63 48 -51 c91 -98 113 -190 68 -288 -21 -45 -36
-63 -76 -88 -32 -19 -51 -38 -51 -49 0 -24 7 -24 75 2 63 23 142 94 173 155
50 99 49 231 -2 318 -27 46 -94 126 -105 126 -3 0 -34 -28 -68 -62z"/>
<path d="M9854 7341 c-113 -31 -238 -99 -326 -179 l-38 -34 0 96 0 96 -75 0
-75 0 0 -715 0 -715 75 0 75 0 0 544 0 544 58 49 c87 75 121 98 199 137 226
114 434 70 515 -108 l23 -51 3 -557 3 -558 74 0 75 0 0 538 c0 582 -3 622 -55
729 -34 68 -119 146 -193 174 -82 31 -241 36 -338 10z"/>
<path d="M11140 7347 c-82 -19 -147 -56 -200 -114 -103 -113 -118 -301 -35
-434 41 -64 103 -116 284 -235 259 -172 324 -242 324 -349 0 -138 -120 -230
-298 -229 -91 0 -174 24 -297 85 -43 22 -80 39 -83 39 -3 0 -5 -36 -5 -81 l0
-80 53 -24 c205 -90 427 -100 584 -24 69 33 129 94 165 166 29 59 32 75 32
153 0 78 -3 94 -32 153 -48 96 -104 148 -312 287 -280 187 -328 242 -318 365
6 74 45 130 118 170 48 26 65 30 135 29 89 0 168 -20 259 -65 32 -16 60 -29
62 -29 2 0 4 34 4 75 l0 76 -47 20 c-118 50 -288 70 -393 46z"/>
<path d="M6980 6605 l0 -715 440 0 440 0 0 65 0 65 -365 0 -365 0 0 650 0 650
-75 0 -75 0 0 -715z"/>
<path d="M8700 6605 l0 -715 75 0 75 0 0 715 0 715 -75 0 -75 0 0 -715z"/>
<path d="M11850 7255 l0 -65 250 0 250 0 0 -650 0 -650 75 0 75 0 0 650 0 650
250 0 250 0 0 65 0 65 -575 0 -575 0 0 -65z"/>
<path d="M13330 6605 l0 -715 75 0 75 0 0 715 0 715 -75 0 -75 0 0 -715z"/>
<path d="M13800 7255 l0 -65 253 -2 252 -3 3 -647 2 -648 70 0 70 0 2 648 3
647 253 3 252 2 0 65 0 65 -580 0 -580 0 0 -65z"/>
<path d="M15262 6778 c3 -525 4 -545 25 -599 33 -87 52 -119 105 -176 94 -99
191 -138 343 -137 76 1 116 6 165 23 87 30 180 92 240 160 l50 56 0 -107 0
-108 75 0 75 0 0 715 0 715 -75 0 -75 0 0 -506 0 -506 -44 -67 c-53 -79 -146
-170 -204 -200 -109 -56 -232 -63 -332 -20 -66 28 -141 109 -171 184 l-24 60
-3 528 -3 527 -75 0 -75 0 3 -542z"/>
<path d="M16650 7255 l0 -65 250 0 250 0 0 -650 0 -650 75 0 75 0 0 650 0 650
250 0 250 0 0 65 0 65 -575 0 -575 0 0 -65z"/>
<path d="M7492 5231 c-252 -69 -436 -244 -525 -499 -26 -75 -31 -105 -35 -217
-3 -108 -1 -145 17 -218 86 -361 404 -605 761 -584 142 9 188 23 392 125 8 4
13 -6 22 -50 l6 -28 165 0 165 0 0 725 0 725 -165 0 -164 0 -7 -37 c-4 -21 -9
-42 -11 -46 -3 -4 -28 6 -56 22 -29 16 -95 44 -147 62 -83 28 -111 32 -220 36
-101 2 -139 -1 -198 -16z m397 -350 c34 -10 83 -33 111 -51 l50 -32 0 -318 0
-317 -40 -27 c-225 -149 -519 -69 -633 172 -30 62 -32 75 -32 172 0 97 2 110
32 172 93 197 307 293 512 229z"/>
<path d="M9415 5231 c-148 -36 -289 -125 -370 -234 -93 -123 -129 -231 -129
-387 0 -191 50 -316 181 -449 46 -46 83 -86 83 -88 0 -2 -70 -96 -156 -209
-86 -113 -155 -207 -153 -208 2 -2 48 -18 102 -35 l97 -33 -56 -61 c-30 -34
-72 -95 -92 -136 -32 -65 -37 -84 -40 -166 -5 -103 12 -179 55 -254 66 -114
195 -211 352 -263 95 -32 99 -32 286 -33 169 0 199 3 270 23 304 87 491 299
472 534 -8 99 -30 165 -79 238 -85 127 -194 189 -488 275 -107 31 -232 68
-277 81 l-82 25 39 55 38 55 124 3 c77 2 147 9 187 20 401 109 589 492 436
889 -7 16 3 17 129 17 l137 0 -3 158 -3 157 -177 3 -178 2 -42 -54 -42 -54
-30 23 c-52 39 -177 94 -251 110 -93 20 -252 18 -340 -4z m301 -350 c58 -26
111 -76 142 -135 23 -44 27 -63 27 -141 0 -102 -17 -147 -80 -210 -64 -64
-108 -80 -215 -80 -107 0 -151 16 -215 80 -63 63 -80 108 -80 210 0 78 4 97
27 140 42 80 98 124 188 149 65 18 146 13 206 -13z m-93 -1455 c114 -36 222
-74 241 -86 40 -24 76 -91 76 -140 0 -76 -72 -150 -186 -192 -85 -31 -236 -30
-317 1 -167 65 -243 211 -177 340 26 52 114 141 138 141 10 0 111 -29 225 -64z"/>
<path d="M11445 5233 c-78 -28 -138 -68 -188 -123 l-45 -50 -7 57 c-12 102 9
93 -211 93 l-194 0 0 -725 0 -725 205 0 205 0 0 500 0 499 53 40 c87 66 139
84 250 89 85 4 187 -7 233 -25 12 -4 14 25 14 180 0 167 -2 186 -17 192 -10 4
-70 10 -133 12 -92 3 -125 0 -165 -14z"/>
<path d="M12660 5243 c-176 -30 -368 -130 -478 -251 -58 -64 -123 -171 -153
-252 -180 -494 173 -997 721 -1027 253 -13 470 67 640 237 96 96 148 178 187
295 25 73 27 93 27 235 0 142 -2 162 -27 235 -87 261 -319 462 -599 519 -71
15 -254 20 -318 9z m294 -366 c83 -38 166 -122 207 -210 32 -69 34 -77 34
-187 0 -110 -1 -118 -34 -188 -103 -219 -358 -304 -560 -185 -147 86 -230 269
-201 442 28 170 134 294 295 348 63 21 191 11 259 -20z"/>
</g>
</svg>
