<?xml version="1.0" standalone="no"?>
<!DOCTYPE svg PUBLIC "-//W3C//DTD SVG 20010904//EN"
 "http://www.w3.org/TR/2001/REC-SVG-20010904/DTD/svg10.dtd">
<svg version="1.0" xmlns="http://www.w3.org/2000/svg"
 width="483.000000pt" height="335.000000pt" viewBox="0 0 483.000000 335.000000"
 preserveAspectRatio="xMidYMid meet">

<g transform="translate(0.000000,335.000000) scale(0.100000,-0.100000)"
fill="#000000" stroke="none">
<path d="M2280 3213 c-405 -22 -840 -147 -1267 -363 -225 -114 -356 -202 -469
-314 -247 -247 -302 -541 -164 -877 69 -168 176 -318 349 -489 513 -510 1281
-881 1965 -951 147 -14 417 -7 539 16 115 21 247 59 305 89 157 80 296 268
378 512 25 74 74 286 74 319 0 13 -128 15 -1085 15 -958 0 -1085 2 -1085 15 0
13 128 15 1089 15 l1088 0 6 68 c12 120 7 385 -8 512 -41 327 -140 620 -287
847 -85 131 -228 277 -339 346 -207 129 -496 214 -804 237 -135 10 -165 10
-285 3z m223 -874 c42 -11 107 -63 107 -85 0 -8 -11 -19 -24 -26 -21 -9 -29
-7 -56 16 -60 50 -130 47 -179 -9 -79 -90 -28 -225 85 -225 25 0 55 5 67 11
23 12 56 48 57 62 0 4 -29 7 -65 7 l-65 0 0 35 0 35 106 0 106 0 -7 -47 c-15
-107 -88 -173 -190 -173 -108 0 -182 69 -192 179 -14 156 105 261 250 220z
m900 0 c47 -13 106 -63 123 -106 29 -68 12 -186 -34 -236 -45 -50 -150 -72
-219 -46 -73 27 -117 98 -117 190 0 53 5 74 27 111 47 80 128 113 220 87z
m-1323 -86 c18 -43 52 -125 76 -183 24 -57 44 -108 44 -112 0 -5 -14 -8 -31
-8 -26 0 -33 5 -46 40 l-16 40 -97 0 -97 0 -16 -40 c-13 -35 -20 -40 -46 -40
-17 0 -31 3 -31 7 0 4 34 90 76 190 l77 183 37 0 c38 0 38 0 70 -77z m960 52
c47 -50 34 -183 -20 -200 -19 -6 -18 -9 15 -75 19 -38 35 -72 35 -75 0 -3 -15
-5 -32 -5 -30 0 -36 6 -71 70 l-38 70 -70 0 -69 0 0 -70 0 -70 -30 0 -30 0 0
190 0 190 143 0 c140 0 144 -1 167 -25z m-1854 -534 c22 -10 51 -31 63 -47
l22 -28 -26 -13 c-22 -12 -28 -11 -47 6 -76 71 -192 32 -205 -69 -16 -119 122
-185 207 -100 17 17 23 18 40 8 28 -18 25 -31 -15 -66 -39 -35 -86 -47 -147
-39 -143 19 -196 215 -87 319 21 20 49 38 61 41 51 10 95 6 134 -12z m2221 9
c26 -6 59 -19 72 -29 20 -16 22 -21 11 -40 -12 -24 -13 -24 -89 4 -52 19 -107
11 -125 -18 -16 -27 12 -43 90 -51 94 -10 129 -27 143 -69 33 -98 -49 -168
-178 -153 -55 7 -83 18 -113 44 -16 13 -13 35 7 60 1 2 21 -7 44 -19 77 -40
156 -34 185 14 18 30 -21 53 -105 61 -85 9 -113 20 -128 53 -35 77 19 141 126
152 7 0 34 -4 60 -9z m-1834 -12 c3 -7 35 -84 71 -170 36 -87 66 -160 66 -163
0 -3 -13 -5 -29 -5 -24 0 -31 6 -45 40 l-16 40 -83 0 -84 0 -16 -40 c-13 -35
-20 -40 -46 -40 l-31 0 13 33 c8 17 40 96 73 175 58 141 59 142 90 142 18 0
34 -6 37 -12z m373 -83 c32 -52 61 -95 64 -95 3 0 32 43 64 95 56 89 61 95 92
95 l34 0 0 -175 0 -175 -30 0 -29 0 -3 125 -3 125 -58 -95 c-32 -52 -62 -95
-67 -95 -5 0 -35 43 -67 95 l-58 95 -3 -125 -3 -125 -29 0 -30 0 0 175 0 175
34 0 c31 0 36 -6 92 -95z m659 85 c59 -22 72 -143 20 -187 -23 -21 -37 -23
-126 -23 l-99 0 0 -65 c0 -63 -1 -65 -25 -65 l-25 0 0 175 0 175 114 0 c63 0
126 -4 141 -10z m217 -115 c3 -114 5 -126 26 -147 18 -18 34 -23 77 -23 43 0
59 5 77 23 21 21 23 33 26 147 4 125 4 125 28 125 l24 0 0 -139 c0 -127 -2
-141 -22 -166 -58 -74 -208 -74 -266 0 -20 25 -22 39 -22 166 l0 139 24 0 c24
0 24 0 28 -125z m-295 -699 c32 -38 30 -81 -6 -117 -25 -25 -37 -29 -81 -29
-44 0 -56 4 -81 29 -33 33 -38 74 -13 109 22 32 51 42 108 38 39 -3 55 -9 73
-30z m105 -33 l3 -68 50 0 50 0 3 68 c3 59 5 67 22 67 18 0 20 -7 20 -74 0
-90 -14 -106 -95 -106 -81 0 -95 16 -95 106 0 67 2 74 20 74 17 0 19 -8 22
-67z m378 47 c0 -18 -7 -20 -65 -20 -51 0 -65 -3 -65 -15 0 -11 12 -15 45 -15
38 0 45 -3 45 -20 0 -17 -7 -20 -45 -20 -33 0 -45 -4 -45 -15 0 -12 14 -15 70
-15 63 0 70 -2 70 -20 0 -19 -7 -20 -90 -20 l-90 0 0 90 0 90 85 0 c78 0 85
-2 85 -20z m209 9 c17 -6 31 -14 31 -19 0 -16 -26 -27 -45 -19 -28 11 -83 11
-90 0 -3 -6 16 -13 42 -16 78 -10 93 -20 93 -59 0 -44 -20 -56 -89 -56 -47 0
-101 16 -101 29 0 3 4 12 9 20 7 10 13 11 30 1 25 -13 107 -10 104 5 -1 6 -21
13 -45 17 -84 14 -88 16 -88 48 0 53 71 76 149 49z m251 -9 c0 -16 -7 -20 -35
-20 l-35 0 0 -70 c0 -63 -2 -70 -20 -70 -18 0 -20 7 -20 70 l0 70 -40 0 c-33
0 -40 3 -40 20 0 19 7 20 95 20 88 0 95 -1 95 -20z"/>
<path d="M3283 2260 c-45 -27 -65 -62 -65 -113 0 -88 49 -137 137 -137 37 0
52 6 81 33 31 28 37 41 41 83 10 114 -101 191 -194 134z"/>
<path d="M1978 2182 c-16 -38 -28 -71 -28 -75 0 -4 27 -7 60 -7 33 0 60 3 60
8 0 12 -55 142 -60 142 -3 0 -17 -31 -32 -68z"/>
<path d="M2790 2215 l0 -55 100 0 c88 0 100 2 110 19 15 29 12 56 -8 74 -15
13 -39 17 -110 17 l-92 0 0 -55z"/>
<path d="M1508 1638 l-26 -63 50 -3 c28 -2 52 -1 55 1 4 5 -35 106 -47 120 -3
4 -18 -21 -32 -55z"/>
<path d="M2400 1670 l0 -50 88 0 c96 0 112 7 112 52 0 38 -24 48 -119 48 l-81
0 0 -50z"/>
<path d="M2390 930 c-24 -24 -24 -29 -4 -58 11 -16 25 -22 54 -22 29 0 43 6
54 22 9 12 16 26 16 30 0 19 -43 48 -70 48 -17 0 -39 -9 -50 -20z"/>
<path d="M4208 1183 c117 -2 306 -2 420 0 114 1 18 2 -213 2 -231 0 -324 -1
-207 -2z"/>
</g>
</svg>
