<svg id="svg" version="1.1" xmlns="http://www.w3.org/2000/svg" xmlns:xlink="http://www.w3.org/1999/xlink" width="400" height="164.53159041394335" viewBox="0, 0, 400,164.53159041394335"><g id="svgg"><path id="path0" d="M65.250 26.828 C 65.067 26.910,64.600 26.982,64.213 26.988 C 61.028 27.041,51.249 29.579,50.666 30.504 C 50.619 30.578,50.019 30.894,49.332 31.208 C 48.645 31.521,47.459 32.165,46.695 32.639 C 45.932 33.112,45.272 33.500,45.230 33.500 C 45.187 33.500,45.062 33.577,44.951 33.671 C 44.194 34.312,42.485 35.610,41.971 35.935 C 41.236 36.399,36.003 41.611,35.993 41.889 C 35.989 41.996,35.541 42.608,34.998 43.250 C 32.945 45.678,30.010 51.221,28.865 54.833 C 26.085 63.608,26.209 73.768,29.201 82.167 C 30.228 85.051,33.841 91.833,34.350 91.833 C 34.433 91.833,34.500 91.916,34.500 92.018 C 34.500 93.339,42.690 101.157,45.755 102.760 C 46.256 103.022,46.667 103.291,46.667 103.356 C 46.667 103.679,51.417 105.952,53.583 106.665 C 54.225 106.877,54.788 107.102,54.833 107.167 C 54.951 107.333,55.847 107.610,57.782 108.079 C 64.760 109.769,72.354 109.681,79.289 107.830 C 80.365 107.543,81.285 107.252,81.331 107.185 C 81.378 107.117,82.129 106.808,83.000 106.497 C 84.535 105.950,88.134 104.278,89.019 103.701 C 89.259 103.545,89.911 103.098,90.468 102.708 C 91.026 102.319,91.535 102.000,91.601 102.000 C 92.810 102.000,100.385 94.366,102.054 91.466 C 102.302 91.034,102.731 90.435,103.006 90.133 C 103.475 89.620,106.000 84.748,106.000 84.357 C 106.000 84.105,106.557 82.928,106.708 82.861 C 106.777 82.831,106.833 82.677,106.833 82.519 C 106.833 82.362,106.902 82.162,106.985 82.075 C 107.551 81.486,108.862 75.241,109.187 71.587 C 109.683 66.012,108.316 55.564,106.832 53.583 C 106.764 53.492,106.329 52.517,105.867 51.417 C 105.026 49.417,104.091 47.549,103.433 46.556 C 102.986 45.882,101.336 43.498,100.566 42.417 C 98.055 38.886,91.793 33.703,87.417 31.534 C 86.408 31.034,85.540 30.557,85.488 30.475 C 85.435 30.393,85.248 30.293,85.071 30.252 C 84.894 30.212,84.112 29.919,83.333 29.601 C 78.510 27.632,67.299 25.913,65.250 26.828 M74.083 39.742 C 76.665 40.283,79.625 41.336,81.250 42.290 C 81.525 42.451,82.125 42.809,82.583 43.086 C 83.042 43.362,83.607 43.685,83.840 43.803 C 85.235 44.513,89.154 48.024,90.290 49.582 C 90.692 50.133,91.114 50.658,91.229 50.750 C 91.704 51.130,92.899 53.119,93.901 55.198 C 96.926 61.478,96.896 61.268,96.962 76.708 L 97.014 89.000 96.382 88.997 C 93.130 88.982,89.327 86.628,87.151 83.282 C 85.645 80.968,85.357 78.935,85.341 70.500 C 85.336 67.979,85.260 65.481,85.173 64.949 C 84.967 63.691,84.220 61.247,83.956 60.968 C 83.843 60.848,83.584 60.397,83.380 59.965 C 82.320 57.712,80.957 56.040,78.940 54.517 C 78.311 54.042,77.679 53.536,77.535 53.393 C 77.234 53.091,75.175 52.118,73.833 51.641 C 70.659 50.516,65.978 50.469,62.667 51.529 C 61.247 51.984,58.833 53.129,58.833 53.348 C 58.833 53.442,58.758 53.473,58.667 53.417 C 58.575 53.360,58.500 53.383,58.500 53.468 C 58.500 53.553,58.185 53.831,57.801 54.085 C 56.728 54.795,56.676 54.839,55.466 56.062 C 54.843 56.692,54.333 57.278,54.333 57.365 C 54.333 57.544,53.482 58.721,53.292 58.806 C 53.223 58.836,53.167 58.967,53.167 59.097 C 53.167 59.227,53.107 59.333,53.035 59.333 C 52.866 59.333,52.135 60.931,51.662 62.333 C 50.206 66.647,50.695 72.737,52.786 76.332 C 55.090 80.294,58.009 82.699,62.869 84.640 C 64.050 85.112,66.346 85.336,69.771 85.315 C 76.188 85.274,80.585 87.511,82.814 91.951 L 83.166 92.653 82.458 93.064 C 81.405 93.676,78.120 95.167,77.826 95.167 C 77.736 95.167,77.345 95.315,76.957 95.495 C 73.091 97.294,63.392 97.387,59.578 95.662 C 59.208 95.495,58.420 95.192,57.828 94.990 C 55.803 94.298,52.062 92.322,51.547 91.673 C 51.435 91.532,51.342 91.474,51.339 91.543 C 51.336 91.613,51.090 91.435,50.792 91.147 C 50.494 90.860,49.987 90.456,49.667 90.249 C 48.332 89.389,44.840 85.548,43.985 84.000 C 43.808 83.679,43.587 83.304,43.495 83.167 C 39.667 77.484,38.256 69.142,39.860 61.678 C 40.205 60.072,41.549 56.019,41.793 55.846 C 41.868 55.793,42.219 55.188,42.573 54.500 C 43.179 53.325,43.998 52.007,45.136 50.378 C 46.761 48.052,51.335 44.172,54.128 42.750 C 54.837 42.390,55.454 42.046,55.500 41.987 C 55.998 41.346,61.273 39.760,64.295 39.343 C 66.564 39.030,71.685 39.239,74.083 39.742 M251.000 86.417 L 251.000 99.167 253.667 99.167 L 256.333 99.167 256.333 94.917 L 256.333 90.667 258.839 90.667 C 261.077 90.667,261.354 90.698,261.440 90.958 C 261.493 91.119,262.044 92.300,262.665 93.583 C 263.286 94.867,264.121 96.647,264.522 97.539 L 265.250 99.161 268.208 99.164 C 271.499 99.167,271.551 99.145,270.821 98.083 C 270.410 97.486,268.122 92.813,267.578 91.462 C 267.367 90.936,267.033 90.281,266.836 90.004 C 266.469 89.488,266.504 89.167,266.927 89.167 C 267.976 89.167,270.333 85.400,270.333 83.724 C 270.333 83.417,270.390 83.167,270.458 83.167 C 270.527 83.167,270.583 82.717,270.583 82.167 C 270.583 81.617,270.537 81.167,270.480 81.167 C 270.423 81.167,270.326 80.720,270.264 80.174 C 270.020 78.020,268.313 75.613,266.357 74.665 C 264.378 73.706,264.015 73.667,257.215 73.667 L 251.000 73.667 251.000 86.417 M262.713 78.656 C 264.707 79.275,265.650 81.528,264.832 83.716 C 264.116 85.628,263.233 85.991,259.292 85.996 L 256.333 86.000 256.333 82.148 L 256.333 78.296 259.208 78.378 C 260.790 78.424,262.367 78.549,262.713 78.656 M280.833 79.681 C 279.707 79.807,278.477 80.120,278.333 80.318 C 278.287 80.381,277.826 80.637,277.308 80.887 C 272.851 83.039,270.926 91.424,274.014 95.232 C 274.096 95.333,274.469 95.814,274.842 96.299 C 275.750 97.482,277.253 98.559,278.625 99.009 C 279.244 99.212,279.855 99.461,279.984 99.564 C 280.310 99.823,284.969 99.819,285.131 99.559 C 285.196 99.454,285.587 99.278,286.000 99.169 C 286.923 98.924,288.393 98.145,289.148 97.502 L 289.712 97.021 289.213 96.386 C 288.939 96.036,288.685 95.675,288.649 95.583 C 288.450 95.081,287.444 93.667,287.286 93.667 C 287.185 93.667,286.825 93.858,286.486 94.093 C 284.774 95.279,282.262 95.604,280.583 94.856 C 279.238 94.257,277.500 92.368,277.500 91.505 C 277.500 91.390,279.771 91.333,284.409 91.333 L 291.318 91.333 291.431 90.730 C 292.606 84.471,287.316 78.957,280.833 79.681 M303.359 79.679 C 302.439 79.860,300.688 80.710,299.734 81.438 C 298.841 82.119,298.833 82.120,298.833 81.521 C 298.833 81.257,298.786 80.807,298.729 80.521 L 298.625 80.000 296.479 80.000 L 294.333 80.000 294.333 89.583 L 294.333 99.167 296.833 99.167 L 299.333 99.167 299.333 93.521 C 299.333 88.995,299.382 87.738,299.577 87.185 C 300.613 84.249,305.006 83.282,306.774 85.600 C 307.620 86.709,307.651 86.986,307.659 93.292 L 307.667 99.167 310.260 99.167 L 312.854 99.167 312.797 92.458 L 312.740 85.750 312.280 84.605 C 311.634 82.993,311.397 82.572,310.715 81.816 C 309.093 80.021,306.076 79.145,303.359 79.679 M325.067 79.748 C 324.013 79.977,322.533 80.713,321.467 81.537 L 320.851 82.014 320.762 81.465 C 320.713 81.164,320.653 80.729,320.628 80.500 L 320.583 80.083 318.458 80.037 L 316.333 79.990 316.333 89.578 L 316.333 99.167 318.750 99.167 L 321.167 99.167 321.167 93.697 C 321.167 89.232,321.214 88.067,321.426 87.354 C 322.266 84.525,326.091 83.301,328.225 85.180 C 329.556 86.351,329.570 86.433,329.634 93.208 L 329.689 99.167 332.095 99.167 L 334.500 99.167 334.499 92.708 C 334.497 83.922,334.043 82.260,331.222 80.707 C 330.931 80.547,330.473 80.289,330.202 80.132 C 329.179 79.540,326.831 79.364,325.067 79.748 M345.417 79.619 C 335.525 80.366,333.647 96.335,343.127 99.089 C 343.653 99.241,344.137 99.453,344.202 99.558 C 344.392 99.865,349.500 99.794,349.500 99.484 C 349.500 99.423,349.848 99.285,350.272 99.178 C 351.661 98.829,353.833 97.518,353.833 97.029 C 353.833 96.893,353.646 96.536,353.417 96.235 C 353.188 95.935,353.000 95.645,353.000 95.592 C 353.000 95.346,351.763 93.667,351.582 93.667 C 351.470 93.667,351.199 93.802,350.981 93.967 C 348.085 96.158,343.891 95.431,342.208 92.446 C 341.539 91.258,341.097 91.333,348.742 91.333 L 355.652 91.333 355.765 90.730 C 356.910 84.625,351.799 79.138,345.417 79.619 M363.917 79.593 C 363.733 79.636,363.171 79.757,362.667 79.863 C 360.788 80.258,358.933 81.643,358.088 83.283 C 357.573 84.280,357.522 86.890,358.008 87.333 C 358.058 87.379,358.301 87.766,358.547 88.192 C 359.347 89.576,361.210 90.608,364.398 91.433 C 364.958 91.578,365.510 91.774,365.625 91.869 C 365.740 91.963,365.833 91.997,365.833 91.944 C 365.833 91.722,367.587 92.787,367.881 93.188 C 368.746 94.369,366.992 95.489,364.624 95.269 C 363.002 95.118,359.913 94.034,359.583 93.500 C 359.367 93.150,359.009 93.364,358.394 94.208 C 357.417 95.549,356.833 96.489,356.833 96.724 C 356.833 97.337,361.001 99.333,362.279 99.333 C 362.492 99.333,362.667 99.392,362.667 99.465 C 362.667 99.778,367.753 99.882,367.968 99.573 C 368.032 99.482,368.501 99.279,369.012 99.121 C 374.154 97.536,374.560 90.719,369.631 88.724 C 369.055 88.491,368.275 88.161,367.898 87.990 C 367.522 87.819,366.988 87.640,366.713 87.592 C 363.216 86.975,361.769 85.427,363.651 84.315 C 364.289 83.938,366.322 83.819,366.722 84.136 C 366.829 84.220,367.442 84.450,368.083 84.646 C 368.725 84.842,369.497 85.153,369.798 85.336 L 370.346 85.670 370.757 85.227 C 370.982 84.984,371.167 84.718,371.167 84.637 C 371.167 84.556,371.504 83.986,371.917 83.372 C 372.329 82.757,372.667 82.177,372.667 82.082 C 372.667 81.929,371.003 80.833,370.771 80.833 C 370.719 80.833,370.281 80.653,369.797 80.434 C 368.249 79.730,365.200 79.295,363.917 79.593 M284.013 84.424 C 285.054 84.968,285.947 85.846,286.331 86.702 L 286.651 87.417 282.134 87.461 C 279.649 87.485,277.585 87.474,277.546 87.435 C 277.202 87.091,279.504 84.599,280.335 84.416 C 280.609 84.356,280.833 84.242,280.833 84.163 C 280.833 83.712,282.987 83.889,284.013 84.424 M347.833 84.158 C 347.879 84.219,348.150 84.363,348.435 84.478 C 349.276 84.818,350.234 85.832,350.739 86.917 L 350.972 87.417 346.461 87.461 C 343.980 87.485,341.918 87.474,341.880 87.436 C 341.654 87.209,343.224 85.008,343.619 84.996 C 343.691 84.994,343.938 84.846,344.167 84.667 C 344.396 84.487,344.715 84.339,344.875 84.337 C 345.035 84.335,345.167 84.263,345.167 84.177 C 345.167 83.866,347.602 83.848,347.833 84.158 M257.926 112.792 C 257.769 113.227,257.574 113.733,257.491 113.917 C 257.409 114.100,257.109 114.888,256.824 115.667 C 255.554 119.136,255.315 119.754,255.117 120.075 C 254.862 120.490,254.488 121.449,252.291 127.333 C 252.102 127.837,251.778 128.625,251.570 129.083 C 251.362 129.542,250.918 130.629,250.585 131.500 C 250.251 132.371,249.914 133.233,249.835 133.417 C 249.204 134.881,248.335 137.430,248.404 137.610 C 248.470 137.783,249.067 137.833,251.055 137.833 L 253.621 137.833 254.311 135.940 C 254.690 134.898,255.000 133.961,255.000 133.857 C 255.000 133.752,255.067 133.667,255.149 133.667 C 255.230 133.667,255.344 133.479,255.402 133.250 L 255.506 132.833 260.573 132.833 L 265.639 132.833 265.930 133.625 C 266.090 134.060,266.334 134.679,266.471 135.000 C 266.609 135.321,266.918 136.071,267.157 136.667 L 267.592 137.750 270.213 137.780 C 273.440 137.817,273.338 138.564,270.955 132.333 C 270.762 131.829,270.558 131.379,270.501 131.333 C 270.444 131.287,270.314 131.025,270.212 130.750 C 269.288 128.264,268.442 126.024,268.322 125.750 C 268.242 125.567,267.874 124.599,267.504 123.599 C 267.134 122.599,266.767 121.699,266.690 121.599 C 266.612 121.499,266.266 120.667,265.920 119.750 C 265.573 118.833,265.000 117.333,264.644 116.417 C 264.289 115.500,263.999 114.686,263.999 114.609 C 264.000 114.464,263.596 113.485,263.319 112.961 C 263.235 112.801,263.167 112.566,263.167 112.437 C 263.167 112.062,262.775 112.000,260.426 112.000 L 258.212 112.000 257.926 112.792 M283.607 118.175 C 283.254 118.263,282.766 118.438,282.524 118.563 C 282.282 118.689,281.821 118.903,281.500 119.040 C 281.179 119.177,280.568 119.555,280.141 119.881 C 279.283 120.537,279.178 120.469,279.166 119.250 C 279.158 118.354,279.066 118.318,276.903 118.369 L 274.917 118.417 274.874 128.125 L 274.831 137.833 277.239 137.833 L 279.647 137.833 279.699 131.875 C 279.748 126.135,279.763 125.892,280.110 125.250 C 281.800 122.125,286.336 121.976,287.736 125.000 C 288.064 125.709,288.086 126.084,288.138 131.792 L 288.192 137.833 290.596 137.833 L 293.000 137.833 293.000 131.277 C 293.000 122.033,292.602 120.728,289.231 118.936 C 287.655 118.098,285.232 117.770,283.607 118.175 M302.830 118.146 C 298.079 119.139,294.790 124.072,295.488 129.157 C 296.323 135.246,302.996 138.643,308.566 135.815 L 309.881 135.148 309.780 135.890 C 309.587 137.293,308.977 138.360,307.972 139.053 C 305.659 140.645,303.032 140.552,298.720 138.723 C 298.551 138.652,296.667 142.141,296.667 142.526 C 296.667 142.852,299.523 143.896,301.392 144.252 C 307.090 145.339,311.824 143.691,313.642 139.989 C 314.622 137.993,314.661 137.523,314.664 127.458 L 314.667 118.333 312.675 118.333 L 310.682 118.333 310.509 118.958 C 310.413 119.302,310.335 119.715,310.334 119.875 C 310.333 120.265,310.121 120.242,309.554 119.792 C 309.295 119.585,308.783 119.270,308.417 119.092 C 308.050 118.913,307.637 118.674,307.499 118.560 C 306.987 118.141,304.085 117.884,302.830 118.146 M325.365 118.186 C 323.464 118.503,319.500 121.034,319.500 121.931 C 319.500 122.061,319.436 122.167,319.358 122.167 C 318.313 122.167,317.327 127.953,317.906 130.685 C 318.521 133.585,321.845 137.488,323.708 137.498 C 323.869 137.499,324.000 137.569,324.000 137.653 C 324.000 138.435,330.819 138.471,331.322 137.691 C 331.374 137.611,331.604 137.489,331.833 137.420 C 332.409 137.246,334.037 136.253,334.398 135.854 C 334.692 135.529,333.753 133.563,332.894 132.703 C 332.769 132.578,332.667 132.407,332.667 132.321 C 332.667 132.086,332.066 132.137,331.856 132.389 C 331.679 132.603,330.763 133.085,329.784 133.479 C 329.527 133.582,329.059 133.667,328.742 133.667 C 328.426 133.667,328.167 133.742,328.167 133.833 C 328.167 133.925,328.017 134.000,327.833 134.000 C 327.650 134.000,327.500 133.920,327.500 133.823 C 327.500 133.725,327.369 133.662,327.208 133.683 C 326.019 133.833,323.680 132.329,322.983 130.965 C 322.363 129.753,321.895 129.833,329.560 129.833 L 336.454 129.833 336.556 128.958 C 337.026 124.908,334.975 120.683,331.833 119.231 C 331.329 118.998,330.684 118.695,330.399 118.557 C 329.412 118.079,327.052 117.905,325.365 118.186 M347.583 118.161 C 346.665 118.360,345.491 119.049,344.725 119.838 L 344.083 120.501 343.917 119.542 L 343.750 118.583 341.667 118.583 L 339.583 118.583 339.540 128.213 L 339.497 137.842 341.957 137.796 L 344.417 137.750 344.500 131.917 C 344.578 126.446,344.605 126.037,344.932 125.333 C 345.986 123.065,347.939 122.301,350.250 123.253 C 350.800 123.480,351.303 123.665,351.367 123.666 C 351.432 123.666,351.795 123.048,352.174 122.292 C 352.554 121.535,353.013 120.674,353.194 120.378 C 353.610 119.697,353.552 119.615,352.171 118.919 C 350.604 118.130,348.974 117.861,347.583 118.161 M358.965 118.188 C 351.879 119.549,351.675 127.341,358.671 129.413 C 359.448 129.644,360.233 129.902,360.417 129.987 C 360.600 130.072,361.186 130.271,361.720 130.430 C 364.233 131.180,364.773 133.184,362.573 133.596 C 362.258 133.655,362.000 133.770,362.000 133.852 C 362.000 134.043,360.750 134.044,360.373 133.853 C 360.214 133.772,359.558 133.583,358.917 133.433 C 358.275 133.282,357.124 132.843,356.359 132.457 C 354.999 131.771,354.964 131.763,354.731 132.086 C 354.601 132.268,354.401 132.529,354.289 132.667 C 353.851 133.200,352.667 135.116,352.667 135.290 C 352.667 135.588,354.998 136.888,356.182 137.250 C 356.403 137.318,356.888 137.509,357.260 137.676 C 358.178 138.088,360.658 138.397,362.082 138.277 C 366.123 137.939,368.652 135.908,368.945 132.767 C 369.230 129.718,367.904 127.958,364.417 126.758 C 363.683 126.505,362.933 126.237,362.750 126.161 C 362.567 126.085,361.841 125.858,361.138 125.658 C 358.498 124.904,357.801 123.165,359.966 122.732 C 360.260 122.673,360.500 122.559,360.500 122.479 C 360.500 122.277,361.623 122.295,361.750 122.500 C 361.807 122.592,362.042 122.667,362.274 122.667 C 362.774 122.667,365.111 123.448,365.579 123.772 C 366.132 124.155,366.474 124.035,366.941 123.292 C 367.186 122.902,367.642 122.184,367.953 121.696 C 368.265 121.208,368.497 120.689,368.468 120.542 C 368.414 120.261,366.265 119.007,365.831 119.003 C 365.692 119.001,365.317 118.860,364.998 118.690 C 363.843 118.074,360.854 117.825,358.965 118.188 M261.136 120.421 C 261.405 121.152,261.869 122.462,262.166 123.333 C 262.464 124.204,262.763 124.954,262.832 125.000 C 262.940 125.073,264.000 128.019,264.000 128.247 C 264.000 128.295,262.462 128.333,260.583 128.333 C 258.704 128.333,257.167 128.315,257.167 128.292 C 257.172 128.061,258.874 123.401,259.017 123.229 C 259.122 123.103,259.152 123.000,259.083 123.000 C 259.015 123.000,259.032 122.906,259.122 122.792 C 259.212 122.677,259.573 121.780,259.926 120.797 C 260.278 119.815,260.585 119.029,260.607 119.052 C 260.629 119.074,260.867 119.690,261.136 120.421 M327.833 122.500 C 327.833 122.592,328.006 122.667,328.217 122.667 C 328.629 122.667,330.333 123.454,330.333 123.644 C 330.333 123.707,330.554 124.001,330.824 124.296 C 331.094 124.592,331.270 124.833,331.215 124.833 C 331.160 124.833,331.228 124.965,331.366 125.125 C 332.132 126.017,332.214 126.000,327.245 126.000 C 324.187 126.000,322.667 125.942,322.667 125.827 C 322.667 124.746,325.060 122.667,326.303 122.667 C 326.503 122.667,326.667 122.592,326.667 122.500 C 326.667 122.408,326.929 122.333,327.250 122.333 C 327.571 122.333,327.833 122.408,327.833 122.500 M307.172 123.169 C 309.595 124.403,310.527 126.600,309.736 129.214 C 308.460 133.426,301.982 133.379,300.577 129.147 C 299.240 125.124,303.474 121.285,307.172 123.169 " stroke="none" fill="#fbac04" fill-rule="evenodd"></path><path id="path1" d="M139.429 36.321 L 138.284 37.475 139.152 38.515 C 141.262 41.039,141.255 43.395,139.134 44.750 C 138.154 45.376,137.897 46.612,138.792 46.395 C 139.470 46.231,139.983 46.027,140.213 45.830 C 140.325 45.734,140.759 45.443,141.177 45.184 C 144.105 43.372,144.324 38.378,141.586 35.854 C 140.647 34.989,140.780 34.960,139.429 36.321 M172.278 36.266 C 170.747 36.543,168.711 37.349,168.088 37.927 C 167.847 38.150,167.597 38.333,167.533 38.333 C 167.469 38.333,166.985 38.672,166.458 39.086 L 165.500 39.838 165.500 38.336 L 165.500 36.833 164.000 36.833 L 162.500 36.833 162.500 49.500 L 162.500 62.167 164.000 62.167 L 165.500 62.167 165.500 52.704 L 165.500 43.240 166.546 42.204 C 167.122 41.633,167.652 41.167,167.724 41.167 C 167.797 41.167,168.170 40.952,168.553 40.689 C 172.785 37.788,177.694 38.381,178.701 41.915 C 178.806 42.283,178.972 42.689,179.071 42.817 C 179.192 42.976,179.266 46.123,179.300 52.609 L 179.351 62.167 180.759 62.167 L 182.167 62.167 182.167 53.434 C 182.167 41.811,182.039 40.722,180.417 38.519 C 178.905 36.465,175.853 35.620,172.278 36.266 M193.504 36.434 C 188.583 37.756,187.310 44.268,191.299 47.717 C 192.357 48.632,197.740 52.333,198.012 52.333 C 198.591 52.333,200.501 55.221,200.499 56.094 C 200.492 60.049,195.790 61.142,190.218 58.485 C 189.467 58.126,188.811 57.833,188.760 57.833 C 188.560 57.833,188.668 60.858,188.875 61.060 C 190.920 63.050,198.714 63.289,200.728 61.423 C 200.966 61.202,201.415 60.828,201.725 60.591 C 203.616 59.149,204.097 55.025,202.657 52.617 C 202.503 52.361,201.824 51.663,201.147 51.065 C 200.470 50.468,199.729 49.807,199.500 49.597 C 199.271 49.387,198.558 48.910,197.917 48.537 C 197.275 48.164,196.200 47.478,195.528 47.013 C 194.856 46.547,194.267 46.167,194.219 46.167 C 193.759 46.167,192.113 43.923,191.922 43.034 C 191.134 39.375,195.753 37.694,200.476 39.922 C 202.209 40.740,202.167 40.763,202.167 39.016 L 202.167 37.531 200.958 37.033 C 198.775 36.134,195.576 35.877,193.504 36.434 M121.374 49.458 L 121.417 62.083 129.208 62.127 L 137.000 62.170 137.000 60.752 L 137.000 59.333 130.667 59.333 L 124.333 59.333 124.333 48.083 L 124.333 36.833 122.832 36.833 L 121.331 36.833 121.374 49.458 M151.500 49.500 L 151.500 62.167 153.000 62.167 L 154.500 62.167 154.500 49.500 L 154.500 36.833 153.000 36.833 L 151.500 36.833 151.500 49.500 M206.333 38.167 L 206.333 39.500 210.750 39.500 L 215.167 39.500 215.167 50.833 L 215.167 62.167 216.667 62.167 L 218.167 62.167 218.167 50.833 L 218.167 39.500 222.500 39.500 L 226.833 39.500 226.833 38.167 L 226.833 36.833 216.583 36.833 L 206.333 36.833 206.333 38.167 M232.041 49.458 L 232.083 62.083 233.542 62.131 L 235.000 62.180 235.000 49.506 L 235.000 36.833 233.499 36.833 L 231.998 36.833 232.041 49.458 M240.500 38.167 L 240.500 39.500 244.833 39.500 L 249.167 39.500 249.167 50.833 L 249.167 62.167 250.667 62.167 L 252.167 62.167 252.167 50.833 L 252.167 39.500 256.500 39.500 L 260.833 39.500 260.833 38.167 L 260.833 36.833 250.667 36.833 L 240.500 36.833 240.500 38.167 M265.706 46.208 C 265.772 56.687,265.735 56.330,267.002 58.500 C 268.886 61.724,272.405 63.157,276.367 62.312 C 278.153 61.931,280.633 60.423,281.400 59.252 C 281.881 58.518,282.000 58.767,282.000 60.500 L 282.000 62.167 283.417 62.167 L 284.833 62.167 284.833 49.500 L 284.833 36.833 283.417 36.833 L 282.000 36.833 282.000 45.750 C 282.000 50.654,281.941 54.667,281.869 54.667 C 281.797 54.667,281.599 54.910,281.427 55.208 C 281.256 55.506,280.878 56.050,280.588 56.417 C 280.297 56.783,280.016 57.199,279.965 57.340 C 279.384 58.924,274.879 60.335,272.734 59.604 C 269.034 58.343,268.679 57.072,268.672 45.042 L 268.667 36.833 267.157 36.833 L 265.647 36.833 265.706 46.208 M290.000 38.167 L 290.000 39.500 294.417 39.500 L 298.833 39.500 298.833 50.833 L 298.833 62.167 300.333 62.167 L 301.833 62.167 301.833 50.833 L 301.833 39.500 306.167 39.500 L 310.500 39.500 310.500 38.167 L 310.500 36.833 300.250 36.833 L 290.000 36.833 290.000 38.167 M131.505 73.012 C 127.452 73.735,124.039 76.159,122.375 79.497 C 122.123 80.003,121.857 80.461,121.784 80.514 C 121.462 80.752,120.808 83.143,120.630 84.733 C 119.922 91.069,123.535 97.276,129.000 99.109 C 129.504 99.278,129.956 99.469,130.004 99.533 C 130.497 100.186,136.670 100.168,137.583 99.511 C 137.675 99.445,138.125 99.256,138.583 99.091 C 139.042 98.926,139.815 98.567,140.302 98.294 C 141.306 97.731,141.253 97.721,141.454 98.500 L 141.604 99.083 144.635 99.129 L 147.667 99.174 147.667 86.417 L 147.667 73.659 144.631 73.705 L 141.596 73.750 141.452 74.358 L 141.308 74.967 139.917 74.314 C 137.400 73.135,133.874 72.589,131.505 73.012 M165.049 73.023 C 155.283 74.425,151.602 86.790,159.108 92.977 L 159.713 93.475 158.981 94.494 C 158.579 95.054,157.762 96.152,157.167 96.935 C 155.442 99.199,154.333 100.739,154.333 100.867 C 154.333 100.932,155.092 101.220,156.020 101.506 L 157.706 102.027 157.186 102.563 C 156.901 102.858,156.667 103.171,156.667 103.258 C 156.667 103.346,156.446 103.626,156.176 103.880 C 152.965 106.911,154.538 113.733,159.042 116.310 C 164.540 119.455,174.066 118.433,177.613 114.317 C 179.031 112.672,179.145 112.526,179.382 112.051 C 180.313 110.182,180.042 104.508,179.021 104.499 C 178.964 104.499,178.654 104.081,178.333 103.572 C 176.999 101.453,174.050 100.062,166.500 97.991 C 163.980 97.300,164.097 97.406,164.721 96.380 L 165.250 95.510 167.217 95.505 C 173.003 95.490,177.544 92.315,178.668 87.500 C 178.785 86.996,178.956 86.535,179.046 86.477 C 179.253 86.342,179.276 82.475,179.071 82.153 C 178.989 82.023,178.763 81.373,178.569 80.708 L 178.218 79.500 180.442 79.500 L 182.667 79.500 182.667 76.583 L 182.667 73.667 179.458 73.665 L 176.250 73.664 175.570 74.445 L 174.890 75.225 173.860 74.599 C 171.478 73.152,168.214 72.569,165.049 73.023 M200.184 73.002 C 198.438 73.372,196.987 74.151,196.044 75.226 L 195.536 75.804 195.421 74.735 L 195.307 73.667 191.737 73.667 L 188.167 73.667 188.167 86.417 L 188.167 99.167 191.917 99.167 L 195.667 99.167 195.667 90.432 L 195.667 81.697 196.781 80.821 C 198.561 79.422,200.503 79.052,203.277 79.583 C 203.995 79.721,204.677 79.833,204.792 79.833 C 204.951 79.833,205.000 79.060,205.000 76.521 L 205.000 73.208 204.458 73.098 C 203.485 72.901,200.933 72.844,200.184 73.002 M221.417 72.943 C 216.115 73.572,211.585 76.645,209.989 80.694 C 209.797 81.181,209.579 81.618,209.505 81.665 C 208.487 82.305,208.462 90.494,209.476 91.157 C 209.554 91.208,209.708 91.526,209.818 91.863 C 210.756 94.741,214.320 97.950,217.833 99.082 C 218.338 99.245,218.825 99.436,218.917 99.507 C 219.757 100.163,226.672 100.171,227.167 99.518 C 227.213 99.457,227.700 99.269,228.250 99.100 C 234.544 97.166,238.463 90.617,237.287 84.000 C 237.014 82.465,236.403 80.667,236.155 80.667 C 236.070 80.667,236.000 80.566,236.000 80.443 C 236.000 80.057,234.683 78.159,233.695 77.120 C 230.803 74.079,225.898 72.411,221.417 72.943 M224.917 79.367 C 227.187 79.938,229.405 82.589,229.844 85.256 C 230.369 88.448,228.697 91.710,225.846 93.054 C 223.181 94.310,219.813 93.580,218.137 91.382 C 217.801 90.941,217.373 90.405,217.187 90.190 C 215.869 88.671,215.927 84.185,217.285 82.510 C 218.898 80.522,219.937 79.715,221.333 79.363 C 222.764 79.003,223.470 79.004,224.917 79.367 M136.533 79.345 C 137.867 79.613,138.623 79.947,139.433 80.624 L 140.167 81.237 140.167 86.524 L 140.167 91.811 139.708 92.134 C 138.367 93.079,136.910 93.530,135.211 93.527 C 128.968 93.516,125.663 85.821,130.106 81.643 C 130.629 81.152,131.190 80.623,131.353 80.467 C 132.367 79.499,134.743 78.984,136.533 79.345 M169.304 79.650 C 174.154 82.136,172.563 89.264,167.162 89.246 C 161.234 89.226,160.158 81.180,165.833 79.313 C 166.592 79.063,168.525 79.251,169.304 79.650 M165.917 104.483 C 172.377 106.436,172.168 106.348,172.653 107.317 C 173.513 109.035,172.785 110.645,170.722 111.589 C 164.418 114.473,158.074 108.694,162.957 104.516 C 163.393 104.143,163.862 103.870,164.000 103.908 C 164.137 103.947,165.000 104.206,165.917 104.483 " stroke="none" fill="#2b2c2c" fill-rule="evenodd"></path><path id="path2" d="M270.548 82.083 C 270.549 82.542,270.581 82.709,270.620 82.456 C 270.658 82.203,270.657 81.828,270.617 81.623 C 270.578 81.418,270.546 81.625,270.548 82.083 " stroke="none" fill="#c4b018" fill-rule="evenodd"></path><path id="path3" d="M270.548 82.083 C 270.549 82.542,270.581 82.709,270.620 82.456 C 270.658 82.203,270.657 81.828,270.617 81.623 C 270.578 81.418,270.546 81.625,270.548 82.083 " stroke="none" fill="#c4b018" fill-rule="evenodd"></path><path id="path4" d="M270.548 82.083 C 270.549 82.542,270.581 82.709,270.620 82.456 C 270.658 82.203,270.657 81.828,270.617 81.623 C 270.578 81.418,270.546 81.625,270.548 82.083 " stroke="none" fill="#c4b018" fill-rule="evenodd"></path></g></svg>